# xmcd
#
# Track frame offsets: 
#        182
#        13027
#        36802
#        51390
#        66690
#        87877
#        109437
#        138877
#        154962
#        169585
#        187435
#        208810
#
# Disc length: 3015 seconds
#
# Revision: 3
# Processed by: cddbd v1.5.2PL0 Copyright (c) Steve Scherf et al.
# Submitted via: ExactAudioCopyFreeDBPlugin 1.0
#
DISCID=b80bc50c
DTITLE=Dr. John - The Brightest Smile in Town
DYEAR=1989
DGENRE=Blues
TTITLE0=Saddled the Cow
TTITLE1=Boxcar Boogie
TTITLE2=The Brightest Smile in Town
TTITLE3=Waiting for a Train
TTITLE4=Monkey Puzzle
TTITLE5=Touro Infirmary
TTITLE6=Didn't he Ramble - Closer Walk with Thee
TTITLE7=Average Kind of Guy
TTITLE8=Pretty Libby
TTITLE9=Marie La Veau
TTITLE10=Come Rain or Come Shine
TTITLE11=Suite Home New Orleans
EXTD=YEAR: 1989
EXTT0=
EXTT1=
EXTT2=
EXTT3=
EXTT4=
EXTT5=
EXTT6=
EXTT7=
EXTT8=
EXTT9=
EXTT10=
EXTT11=
PLAYORDER=
